<svg id="Logos" xmlns="http://www.w3.org/2000/svg" viewBox="0 0 28 28"><defs><style>.cls-1{fill:#4caf50;}.cls-2{fill:#388e3c;}.cls-3{fill:#ffc107;}</style></defs><title>nuntium</title><path class="cls-1" d="M24.23,14A11,11,0,0,1,28,5.7V0H22.4a19,19,0,0,0,0,28H28V22.3A11,11,0,0,1,24.23,14Z" transform="translate(0 0)"/><path class="cls-2" d="M28,22.43l0-.09L16.51,10.88A18.73,18.73,0,0,0,22.41,28H28Z" transform="translate(0 0)"/><path class="cls-3" d="M0,5.7A11,11,0,0,1,3.77,14,11,11,0,0,1,0,22.3V28H5.6a19,19,0,0,0,6.17-14A19,19,0,0,0,5.6,0H0Z" transform="translate(0 0)"/></svg>